<svg xmlns="http://www.w3.org/2000/svg" width="32.779" height="41.401" viewBox="495.836 865.5 16.39 20.7"><g data-name="Group 5"><g data-name="Group 4" transform="translate(495.836 865.5)" clip-path="url(&quot;#a&quot;)"><g data-name="Group 3"><path d="M16.39.144c0-.084-.06-.15-.129-.144-.557.051-1.163.108-1.676.216a6.466 6.466 0 0 0-3.272 1.846c-1.072 1.11-1.638 2.491-1.636 4.243.027 1.868.005 4.974.005 6.843-.001 2.081-.004 4.163 0 6.244 0 .273-.093.47-.278.599-.1.07-.214.144-.323.146-.295.008-.59.016-.886.018-.295-.002-.59-.01-.886-.018-.109-.002-.224-.077-.323-.146-.186-.13-.278-.326-.278-.599.003-2.081 0-4.163 0-6.244 0-1.869-.022-2.903.004-4.77.003-1.753-.563-3.133-1.635-4.243a6.467 6.467 0 0 0-3.272-1.847C1.292 2.18.685 2.123.128 2.072.06 2.066 0 2.132 0 2.216v.036c.003 4.003 0 7.171.004 11.174.001 1.347.399 2.53 1.074 3.58.893 1.387 2.071 2.29 3.411 2.905a8.619 8.619 0 0 0 2.9.755 9.821 9.821 0 0 0 1.613 0 8.619 8.619 0 0 0 2.898-.755c1.34-.616 2.519-1.518 3.411-2.906.676-1.049 1.073-2.232 1.075-3.579.004-4.003 0-9.243.004-13.247V.144Z" fill="#91bf21" fill-rule="evenodd" data-name="Path 11"/></g></g></g><defs><clipPath id="a"><path d="M0-105.548h16.39v-20.701H0v20.7Z" data-name="Path 12" transform="translate(0 126.249)"/></clipPath></defs></svg>