<svg xmlns="http://www.w3.org/2000/svg" width="928.328" height="170.258"><g data-name="Group 1" clip-path="url(&quot;#a&quot;)"><path d="M88.752 95.174C87.928 85.46 85.787 82 73.603 82c-2.14 0-3.129-1.317-3.129-2.47 0-.988.823-1.976 2.47-1.976h50.715c1.647 0 2.47.988 2.47 1.976 0 1.153-.988 2.47-3.129 2.47-12.513 0-12.678 3.293-13.995 13.173-.66 4.61-.988 7.245-.988 25.522 0 6.092 1.646 7.574 1.646 9.057 0 1.152-.33 1.81-4.28 2.8-13.174 3.127-27.499 4.939-40.178 4.939C23.382 137.492 0 115.427 0 73.603 0 34.58 23.875 7.575 69.321 7.575c9.88 0 20.913.987 32.768 3.787 1.482.494 2.47 1.153 2.634 3.458v31.614c0 1.977-.823 2.635-1.81 2.635-.989 0-1.977-.824-2.307-2.964-3.292-20.582-14.489-32.438-34.084-32.438-19.43 0-43.47 16.796-43.47 59.936 0 36.06 15.808 56.973 41.495 56.973 11.36 0 18.277-1.153 25.192-5.434 0-11.362-.658-25.358-.987-29.968" fill="#fff" fill-rule="evenodd" data-name="Path 1"/><path d="M187.05 35.402c8.398 0 14.161 4.117 14.161 13.337 0 10.044-9.88 12.184-14.82 12.184 0-2.963-.164-10.538-7.244-10.538-9.222 0-16.961 16.302-16.961 35.732 0 19.924.494 27.004.989 31.615 1.317 9.88 5.268 13.831 18.771 13.831 1.975 0 2.964 1.153 2.964 2.305 0 .988-.823 1.976-2.47 1.976h-51.373c-1.647 0-2.47-.988-2.47-1.976 0-1.152.987-2.305 2.963-2.305 8.562 0 11.855-4.116 12.678-13.831.33-4.61.989-15.972.989-27.004v-7.08c0-20.583-.989-37.543-14.656-37.543h-3.95c-1.647 0-2.47-.823-2.47-1.812 0-.823.658-1.81 2.47-2.304 6.75-1.813 26.015-4.611 28.65-4.611 6.258 0 7.41 12.184 7.41 26.016 5.269-22.723 15.478-27.992 24.37-27.992" fill="#fff" fill-rule="evenodd" data-name="Path 2"/><path d="M245.502 137.491c-24.535 0-41.823-15.807-41.823-48.081 0-30.461 14.984-54.008 45.281-54.008 13.667 0 31.615 7.41 31.615 32.108 0 5.929-2.965 8.068-10.045 8.068h-47.586c0 31.287 11.36 49.234 29.474 49.234 11.197 0 18.936-3.458 25.028-16.135.494-.99 1.153-1.318 1.81-1.318.99 0 1.32.823 1.32 1.975 0 10.21-9.88 28.157-35.074 28.157m-22.229-66.194 30.298-2.14c5.434-.329 6.42-2.47 6.42-6.092 0-15.149-4.773-22.394-14.324-22.394-13.831 0-20.418 14.49-22.394 30.626" fill="#fff" fill-rule="evenodd" data-name="Path 3"/><path d="M334.417 137.491c-24.535 0-41.824-15.807-41.824-48.081 0-30.461 14.985-54.008 45.282-54.008 13.666 0 31.615 7.41 31.615 32.108 0 5.929-2.965 8.068-10.046 8.068H311.86c0 31.287 11.36 49.234 29.474 49.234 11.197 0 18.935-3.458 25.028-16.135.493-.99 1.152-1.318 1.81-1.318.99 0 1.319.823 1.319 1.975 0 10.21-9.88 28.157-35.073 28.157m-22.229-66.194 30.297-2.14c5.435-.329 6.422-2.47 6.422-6.092 0-15.149-4.775-22.394-14.325-22.394-13.832 0-20.418 14.49-22.394 30.626" fill="#fff" fill-rule="evenodd" data-name="Path 4"/><path d="M417.238 51.21c10.538-8.892 19.101-15.808 30.956-15.808 13.667 0 21.735 10.538 21.735 24.698v58.784c0 9.88 3.129 12.68 12.02 12.68 1.976 0 2.964 1.152 2.964 2.304 0 .988-.823 1.976-2.47 1.976H437.82c-1.646 0-2.47-.988-2.47-1.976 0-1.152.99-2.305 2.965-2.305 9.715 0 12.678-5.927 12.678-44.622 0-34.58-5.104-40.012-13.337-40.012-7.41 0-13.996 6.091-25.687 15.312-.164 5.435-.164 13.503-.164 21.406v7.081c0 11.032.33 22.722.988 27.332 1.316 9.88 1.646 13.503 11.855 13.503 2.14 0 3.128 1.153 3.128 2.305 0 .988-.823 1.976-2.47 1.976h-45.28c-1.647 0-2.47-.988-2.47-1.976 0-1.152.987-2.305 2.964-2.305 13.666-.164 13.666-8.563 13.666-40.835v-7.904c0-20.583-.165-36.72-10.703-36.72h-4.61c-1.647 0-2.14-.822-2.14-1.645 0-3.294 23.71-7.081 29.474-7.081 3.621 0 6.257 2.305 6.257 8.068 0 1.976 0 6.422-.166 9.88l4.94-4.117Z" fill="#fff" fill-rule="evenodd" data-name="Path 5"/><path d="M626.517 9.88c1.811 0 2.47.33 2.47 2.634v27.828c0 1.317-.987 1.976-1.976 1.976-1.153 0-2.47-.824-2.47-2.141 0-10.21-8.562-23.71-23.381-23.71h-15.314v62.406c0 22.228.494 34.248.989 38.859 1.152 9.88 6.257 13.667 18.277 13.667 2.14 0 3.128 1.317 3.128 2.47 0 .987-.824 1.975-2.47 1.975h-58.948c-1.647 0-2.47-.988-2.47-1.975 0-1.153.988-2.47 2.964-2.47 13.008 0 17.29-3.952 18.112-13.667.33-4.61.99-16.301.99-39.025v-62.24h-15.15c-14.82 0-23.547 13.5-23.547 23.71 0 1.317-1.316 2.141-2.47 2.141-.987 0-1.975-.659-1.975-1.976V12.514c0-2.305.823-2.634 2.47-2.634h100.771Z" fill="#fff" fill-rule="evenodd" data-name="Path 6"/><path d="M760.545 90.728c0 11.032.164 23.547.823 28.157 1.317 9.879 2.306 12.678 12.02 12.678 1.976 0 2.964 1.153 2.964 2.306 0 .987-.824 1.975-2.47 1.975h-45.61c-1.647 0-2.47-.988-2.47-1.975 0-1.153.988-2.306 2.963-2.306 9.22 0 11.856-2.964 12.679-12.678.33-4.61.988-17.125.988-28.157V32.603c0-17.125-1.152-21.406-10.703-21.406h-4.116c-1.647 0-2.635-.658-2.635-1.481 0-.824.824-1.647 2.635-2.141 6.916-1.812 22.064-6.586 26.675-6.586 3.622 0 6.257 2.304 6.257 8.068v81.671Z" fill="#fff" fill-rule="evenodd" data-name="Path 7"/><path d="M814.221 83.647v7.081c0 11.032.33 22.393.988 27.004 1.318 9.88 1.647 13.995 11.856 13.995 2.14 0 3.129.989 3.129 2.14 0 .99-.823 1.977-2.47 1.977h-45.282c-1.646 0-2.47-.988-2.47-1.976 0-1.152.988-2.14 2.964-2.14 9.88 0 11.856-4.281 12.68-13.996.328-4.61.986-15.972.986-27.004V79.366c0-20.583-.493-33.426-10.043-33.426h-4.281c-1.647 0-2.306-.823-2.306-1.647 0-.823.494-1.81 2.306-2.304 6.75-1.813 21.735-4.611 26.345-4.611 3.623 0 6.258 2.305 6.258 8.068s-.66 17.619-.66 38.201M804.507 0c6.586 0 12.02 5.434 12.02 12.02 0 6.422-5.434 11.855-12.02 11.855-6.422 0-11.856-5.433-11.856-11.855 0-6.586 5.434-12.02 11.856-12.02" fill="#fff" fill-rule="evenodd" data-name="Path 8"/><path d="M895.725 35.402c24.042 0 32.603 19.76 32.603 46.764 0 32.602-19.43 54.667-47.587 54.667-7.41 0-12.843-1.647-17.453-3.624 0 27.17.164 32.933 15.642 32.933 1.976 0 2.965.988 2.965 2.14 0 .989-.824 1.976-2.47 1.976H828.05c-1.646 0-2.47-.987-2.47-1.976 0-1.152.989-2.14 2.965-2.14 13.008 0 15.312-4.281 16.136-13.996.33-4.61.989-11.69.989-22.723V68.005c0-13.667-1.647-21.9-13.009-21.9h-4.116c-1.647 0-2.47-.659-2.47-1.646 0-3.624 25.522-7.081 31.45-7.081 4.445 0 4.939 8.068 4.939 18.277 9.057-10.373 19.76-20.253 33.261-20.253m-32.437 77.72c0 9.55 6.092 17.783 18.111 17.783 18.607 0 27.664-19.76 27.664-44.129 0-19.924-3.952-39.354-21.406-39.354-7.903 0-17.619 7.246-24.37 13.83v51.87Z" fill="#fff" fill-rule="evenodd" data-name="Path 9"/><path d="M715.925 34.237c-.002-.421-.297-.752-.643-.72-2.792.255-5.827.54-8.398 1.08-6.085 1.397-11.645 4.332-16.394 9.25-5.37 5.564-8.207 12.48-8.195 21.257.133 9.358.026 24.922.022 34.283-.003 10.429-.016 20.857 0 31.285.003 1.368-.462 2.351-1.39 3-.498.348-1.074.72-1.622.735-1.478.036-2.958.08-4.437.086-1.48-.007-2.96-.05-4.438-.086-.546-.014-1.124-.387-1.62-.734-.93-.65-1.394-1.633-1.392-3.001.016-10.428.003-20.856 0-31.285-.003-9.36-.11-14.543.022-23.902.012-8.776-2.823-15.693-8.195-21.256-4.748-4.918-10.309-7.853-16.392-9.25-2.572-.54-5.607-.825-8.4-1.08-.345-.033-.64.299-.642.72v.177c.014 20.056-.001 35.93.02 55.987.007 6.75 1.996 12.674 5.381 17.932 4.474 6.95 10.378 11.473 17.09 14.555 4.68 2.15 9.532 3.364 14.525 3.783 1.356.115 2.702.172 4.041.175a49.686 49.686 0 0 0 4.041-.175c4.993-.42 9.845-1.633 14.525-3.783 6.713-3.082 12.615-7.606 17.09-14.555 3.384-5.258 5.374-11.182 5.381-17.932.022-20.056.005-46.312.02-66.369v-.177Z" fill="#91bf20" fill-rule="evenodd" data-name="Path 10"/></g><defs><clipPath id="a"><path d="M0 0h928.328v170.258H0V0z" data-name="Rectangle 1"/></clipPath></defs></svg>